<mxfile host="65bd71144e">
    <diagram id="q6ZjXwOigtVPeb_UORay" name="Page-1">
        <mxGraphModel dx="1678" dy="789" grid="1" gridSize="10" guides="1" tooltips="1" connect="1" arrows="1" fold="1" page="1" pageScale="1" pageWidth="827" pageHeight="1169" background="#FFFFFF" math="0" shadow="0">
            <root>
                <mxCell id="0"/>
                <mxCell id="1" parent="0"/>
                <mxCell id="2" value="ExplorerView" style="rounded=1;whiteSpace=wrap;html=1;labelBackgroundColor=none;fontColor=#ffffff;fillColor=#60a917;strokeColor=#2D7600;" parent="1" vertex="1">
                    <mxGeometry x="10" y="210" width="120" height="60" as="geometry"/>
                </mxCell>
                <mxCell id="3" value="&lt;div style=&quot;text-align: left&quot;&gt;&lt;span style=&quot;font-size: 11.9px&quot;&gt;&lt;font&gt;WorkbenchCompressibleAsyncDataTree&lt;/font&gt;&lt;/span&gt;&lt;/div&gt;" style="rounded=1;whiteSpace=wrap;html=1;labelBackgroundColor=none;fontColor=#ffffff;fillColor=#60a917;strokeColor=#2D7600;" parent="1" vertex="1">
                    <mxGeometry x="10" y="330" width="230" height="60" as="geometry"/>
                </mxCell>
                <mxCell id="K2otVNH5BM3hFpUply0Z-3" value="" style="endArrow=classic;html=1;rounded=0;edgeStyle=elbowEdgeStyle;labelBackgroundColor=none;fontColor=#030202;fillColor=#60a917;strokeColor=#2D7600;" parent="1" source="2" target="3" edge="1">
                    <mxGeometry width="50" height="50" relative="1" as="geometry">
                        <mxPoint x="240" y="410" as="sourcePoint"/>
                        <mxPoint x="270" y="450" as="targetPoint"/>
                        <Array as="points">
                            <mxPoint x="70" y="330"/>
                        </Array>
                    </mxGeometry>
                </mxCell>
                <mxCell id="K2otVNH5BM3hFpUply0Z-4" value="&lt;div style=&quot;text-align: left&quot;&gt;&lt;font&gt;&lt;span style=&quot;font-size: 11.9px&quot;&gt;CompressibleAsyncDataTree&lt;/span&gt;&lt;/font&gt;&lt;br&gt;&lt;/div&gt;" style="rounded=1;whiteSpace=wrap;html=1;labelBackgroundColor=none;fontColor=#ffffff;fillColor=#60a917;strokeColor=#2D7600;" parent="1" vertex="1">
                    <mxGeometry x="310" y="330" width="180" height="60" as="geometry"/>
                </mxCell>
                <mxCell id="K2otVNH5BM3hFpUply0Z-5" value="" style="endArrow=block;endSize=16;endFill=0;html=1;rounded=0;labelBackgroundColor=none;fontColor=#030202;fillColor=#60a917;strokeColor=#2D7600;" parent="1" source="3" target="K2otVNH5BM3hFpUply0Z-4" edge="1">
                    <mxGeometry x="0.4815" width="160" relative="1" as="geometry">
                        <mxPoint x="320" y="380" as="sourcePoint"/>
                        <mxPoint x="480" y="380" as="targetPoint"/>
                        <mxPoint as="offset"/>
                    </mxGeometry>
                </mxCell>
                <mxCell id="K2otVNH5BM3hFpUply0Z-6" value="&lt;div style=&quot;text-align: left&quot;&gt;&lt;font&gt;&lt;span style=&quot;font-size: 11.9px&quot;&gt;CompressibleAsyncDataTreeNodeMapper&lt;/span&gt;&lt;/font&gt;&lt;br&gt;&lt;/div&gt;" style="rounded=1;whiteSpace=wrap;html=1;labelBackgroundColor=none;fontColor=#ffffff;fillColor=#60a917;strokeColor=#2D7600;" parent="1" vertex="1">
                    <mxGeometry x="285" y="440" width="230" height="60" as="geometry"/>
                </mxCell>
                <mxCell id="K2otVNH5BM3hFpUply0Z-7" value="" style="endArrow=classic;html=1;rounded=0;edgeStyle=elbowEdgeStyle;labelBackgroundColor=none;fontColor=#030202;fillColor=#60a917;strokeColor=#2D7600;" parent="1" source="K2otVNH5BM3hFpUply0Z-4" target="K2otVNH5BM3hFpUply0Z-6" edge="1">
                    <mxGeometry width="50" height="50" relative="1" as="geometry">
                        <mxPoint x="390" y="400" as="sourcePoint"/>
                        <mxPoint x="390" y="460" as="targetPoint"/>
                        <Array as="points">
                            <mxPoint x="390" y="460"/>
                        </Array>
                    </mxGeometry>
                </mxCell>
                <mxCell id="K2otVNH5BM3hFpUply0Z-8" value="&lt;div style=&quot;text-align: left&quot;&gt;&lt;font&gt;&lt;span style=&quot;font-size: 11.9px&quot;&gt;AsyncDataTree&lt;/span&gt;&lt;/font&gt;&lt;br&gt;&lt;/div&gt;" style="rounded=1;whiteSpace=wrap;html=1;labelBackgroundColor=none;fontColor=#ffffff;fillColor=#60a917;strokeColor=#2D7600;" parent="1" vertex="1">
                    <mxGeometry x="885" y="330" width="120" height="60" as="geometry"/>
                </mxCell>
                <mxCell id="K2otVNH5BM3hFpUply0Z-9" value="" style="endArrow=block;endSize=16;endFill=0;html=1;rounded=0;labelBackgroundColor=none;fontColor=#030202;fillColor=#60a917;strokeColor=#2D7600;" parent="1" source="K2otVNH5BM3hFpUply0Z-4" target="K2otVNH5BM3hFpUply0Z-8" edge="1">
                    <mxGeometry x="0.4815" width="160" relative="1" as="geometry">
                        <mxPoint x="450" y="360" as="sourcePoint"/>
                        <mxPoint x="720" y="380" as="targetPoint"/>
                        <mxPoint as="offset"/>
                    </mxGeometry>
                </mxCell>
                <mxCell id="K2otVNH5BM3hFpUply0Z-10" value="&lt;div style=&quot;text-align: left&quot;&gt;&lt;font&gt;&lt;span style=&quot;font-size: 11.9px&quot;&gt;new map()&lt;/span&gt;&lt;/font&gt;&lt;br&gt;&lt;/div&gt;" style="rounded=1;whiteSpace=wrap;html=1;labelBackgroundColor=none;fontColor=#ffffff;fillColor=#60a917;strokeColor=#2D7600;" parent="1" vertex="1">
                    <mxGeometry x="905" y="440" width="80" height="60" as="geometry"/>
                </mxCell>
                <mxCell id="K2otVNH5BM3hFpUply0Z-11" value="" style="endArrow=classic;html=1;rounded=0;edgeStyle=elbowEdgeStyle;labelBackgroundColor=none;fontColor=#030202;fillColor=#60a917;strokeColor=#2D7600;" parent="1" source="K2otVNH5BM3hFpUply0Z-8" target="K2otVNH5BM3hFpUply0Z-10" edge="1">
                    <mxGeometry width="50" height="50" relative="1" as="geometry">
                        <mxPoint x="975" y="400" as="sourcePoint"/>
                        <mxPoint x="965" y="470" as="targetPoint"/>
                        <Array as="points">
                            <mxPoint x="965" y="470"/>
                        </Array>
                    </mxGeometry>
                </mxCell>
                <mxCell id="K2otVNH5BM3hFpUply0Z-12" value="&lt;div style=&quot;text-align: left&quot;&gt;&lt;font&gt;&lt;span style=&quot;font-size: 11.9px&quot;&gt;ObjectTree&lt;/span&gt;&lt;/font&gt;&lt;br&gt;&lt;/div&gt;" style="rounded=1;whiteSpace=wrap;html=1;labelBackgroundColor=none;fontColor=#ffffff;fillColor=#60a917;strokeColor=#2D7600;" parent="1" vertex="1">
                    <mxGeometry x="905" y="500" width="80" height="60" as="geometry"/>
                </mxCell>
                <mxCell id="K2otVNH5BM3hFpUply0Z-13" value="&lt;div style=&quot;text-align: left&quot;&gt;&lt;font&gt;&lt;span style=&quot;font-size: 11.9px&quot;&gt;AbstractTree (abstract)&lt;/span&gt;&lt;/font&gt;&lt;br&gt;&lt;/div&gt;" style="rounded=1;whiteSpace=wrap;html=1;labelBackgroundColor=none;fontColor=#ffffff;fillColor=#60a917;strokeColor=#2D7600;" parent="1" vertex="1">
                    <mxGeometry x="718.25" y="500" width="133" height="60" as="geometry"/>
                </mxCell>
                <mxCell id="K2otVNH5BM3hFpUply0Z-15" value="&lt;div style=&quot;text-align: left&quot;&gt;&lt;font&gt;&lt;span style=&quot;font-size: 11.9px&quot;&gt;ITreeModel&lt;/span&gt;&lt;/font&gt;&lt;/div&gt;" style="rounded=1;whiteSpace=wrap;html=1;labelBackgroundColor=none;fontColor=#ffffff;fillColor=#60a917;strokeColor=#2D7600;" parent="1" vertex="1">
                    <mxGeometry x="744.75" y="600" width="76.5" height="60" as="geometry"/>
                </mxCell>
                <mxCell id="K2otVNH5BM3hFpUply0Z-16" value="" style="endArrow=classic;html=1;rounded=0;edgeStyle=elbowEdgeStyle;labelBackgroundColor=none;fontColor=#030202;fillColor=#60a917;strokeColor=#2D7600;" parent="1" source="K2otVNH5BM3hFpUply0Z-13" target="K2otVNH5BM3hFpUply0Z-15" edge="1">
                    <mxGeometry width="50" height="50" relative="1" as="geometry">
                        <mxPoint x="798.25" y="585" as="sourcePoint"/>
                        <mxPoint x="818.25" y="665" as="targetPoint"/>
                        <Array as="points">
                            <mxPoint x="783.25" y="620"/>
                        </Array>
                    </mxGeometry>
                </mxCell>
                <mxCell id="K2otVNH5BM3hFpUply0Z-20" value="&lt;div style=&quot;text-align: left&quot;&gt;&lt;font&gt;&lt;span style=&quot;font-size: 11.9px&quot;&gt;ObjectTreeModel (override)&lt;/span&gt;&lt;/font&gt;&lt;/div&gt;" style="rounded=1;whiteSpace=wrap;html=1;labelBackgroundColor=none;fontColor=#ffffff;fillColor=#60a917;strokeColor=#2D7600;" parent="1" vertex="1">
                    <mxGeometry x="567.38" y="690" width="150" height="60" as="geometry"/>
                </mxCell>
                <mxCell id="K2otVNH5BM3hFpUply0Z-21" value="" style="endArrow=classic;html=1;rounded=0;edgeStyle=elbowEdgeStyle;labelBackgroundColor=none;fontColor=#030202;fillColor=#60a917;strokeColor=#2D7600;" parent="1" edge="1">
                    <mxGeometry width="50" height="50" relative="1" as="geometry">
                        <mxPoint x="641.75" y="560" as="sourcePoint"/>
                        <mxPoint x="641.75" y="690" as="targetPoint"/>
                        <Array as="points">
                            <mxPoint x="641.75" y="645"/>
                        </Array>
                    </mxGeometry>
                </mxCell>
                <mxCell id="K2otVNH5BM3hFpUply0Z-22" value="&lt;div style=&quot;text-align: left&quot;&gt;&lt;font&gt;&lt;span style=&quot;font-size: 11.9px&quot;&gt;new map()&lt;/span&gt;&lt;/font&gt;&lt;/div&gt;" style="rounded=1;whiteSpace=wrap;html=1;labelBackgroundColor=none;fontColor=#ffffff;fillColor=#60a917;strokeColor=#2D7600;" parent="1" vertex="1">
                    <mxGeometry x="605" y="790" width="76.5" height="60" as="geometry"/>
                </mxCell>
                <mxCell id="K2otVNH5BM3hFpUply0Z-23" value="" style="endArrow=classic;html=1;rounded=0;edgeStyle=elbowEdgeStyle;labelBackgroundColor=none;fontColor=#030202;fillColor=#60a917;strokeColor=#2D7600;" parent="1" target="K2otVNH5BM3hFpUply0Z-22" edge="1">
                    <mxGeometry width="50" height="50" relative="1" as="geometry">
                        <mxPoint x="643.25" y="750" as="sourcePoint"/>
                        <mxPoint x="676.75" y="885" as="targetPoint"/>
                        <Array as="points">
                            <mxPoint x="641.75" y="840"/>
                        </Array>
                    </mxGeometry>
                </mxCell>
                <mxCell id="K2otVNH5BM3hFpUply0Z-24" value="&lt;div style=&quot;text-align: left&quot;&gt;&lt;font&gt;&lt;span style=&quot;font-size: 11.9px&quot;&gt;IndexTreeModel&lt;/span&gt;&lt;/font&gt;&lt;/div&gt;" style="rounded=1;whiteSpace=wrap;html=1;labelBackgroundColor=none;fontColor=#ffffff;fillColor=#60a917;strokeColor=#2D7600;" parent="1" vertex="1">
                    <mxGeometry x="590" y="850" width="106.5" height="60" as="geometry"/>
                </mxCell>
                <mxCell id="K2otVNH5BM3hFpUply0Z-25" value="&lt;div style=&quot;text-align: left&quot;&gt;&lt;font&gt;&lt;span style=&quot;font-size: 11.9px&quot;&gt;CompressibleObjectTree&lt;/span&gt;&lt;/font&gt;&lt;br&gt;&lt;/div&gt;" style="rounded=1;whiteSpace=wrap;html=1;labelBackgroundColor=none;fontColor=#ffffff;fillColor=#60a917;strokeColor=#2D7600;" parent="1" vertex="1">
                    <mxGeometry x="326.63" y="500" width="155" height="60" as="geometry"/>
                </mxCell>
                <mxCell id="K2otVNH5BM3hFpUply0Z-27" value="" style="endArrow=block;endSize=16;endFill=0;html=1;rounded=0;labelBackgroundColor=none;fontColor=#030202;fillColor=#60a917;strokeColor=#2D7600;" parent="1" source="K2otVNH5BM3hFpUply0Z-25" target="K2otVNH5BM3hFpUply0Z-28" edge="1">
                    <mxGeometry x="0.4815" width="160" relative="1" as="geometry">
                        <mxPoint x="481.63" y="420" as="sourcePoint"/>
                        <mxPoint x="554.13" y="530" as="targetPoint"/>
                        <mxPoint as="offset"/>
                    </mxGeometry>
                </mxCell>
                <mxCell id="K2otVNH5BM3hFpUply0Z-28" value="&lt;div style=&quot;text-align: left&quot;&gt;&lt;font&gt;&lt;span style=&quot;font-size: 11.9px&quot;&gt;ObjectTree&lt;/span&gt;&lt;/font&gt;&lt;br&gt;&lt;/div&gt;" style="rounded=1;whiteSpace=wrap;html=1;labelBackgroundColor=none;fontColor=#ffffff;fillColor=#60a917;strokeColor=#2D7600;" parent="1" vertex="1">
                    <mxGeometry x="602.38" y="500" width="80" height="60" as="geometry"/>
                </mxCell>
                <mxCell id="K2otVNH5BM3hFpUply0Z-29" value="&lt;div style=&quot;text-align: left&quot;&gt;&lt;font&gt;&lt;span style=&quot;font-size: 11.9px&quot;&gt;...&lt;/span&gt;&lt;/font&gt;&lt;br&gt;&lt;/div&gt;" style="rounded=1;whiteSpace=wrap;html=1;labelBackgroundColor=none;fontColor=#ffffff;fillColor=#60a917;strokeColor=#2D7600;" parent="1" vertex="1">
                    <mxGeometry x="1025" y="500" width="37.1" height="60" as="geometry"/>
                </mxCell>
                <mxCell id="K2otVNH5BM3hFpUply0Z-30" value="" style="endArrow=block;endSize=16;endFill=0;html=1;rounded=0;labelBackgroundColor=none;fontColor=#030202;fillColor=#60a917;strokeColor=#2D7600;" parent="1" target="K2otVNH5BM3hFpUply0Z-29" edge="1">
                    <mxGeometry x="0.4815" width="160" relative="1" as="geometry">
                        <mxPoint x="985.0000000000001" y="529.9999999999998" as="sourcePoint"/>
                        <mxPoint x="1190.9" y="550" as="targetPoint"/>
                        <mxPoint as="offset"/>
                    </mxGeometry>
                </mxCell>
                <mxCell id="K2otVNH5BM3hFpUply0Z-31" value="&lt;div style=&quot;text-align: left&quot;&gt;&lt;font&gt;&lt;span style=&quot;font-size: 11.9px&quot;&gt;CompressibleObjectTreeModel&lt;/span&gt;&lt;/font&gt;&lt;/div&gt;" style="rounded=1;whiteSpace=wrap;html=1;labelBackgroundColor=none;fontColor=#ffffff;fillColor=#60a917;strokeColor=#2D7600;" parent="1" vertex="1">
                    <mxGeometry x="310.01" y="600" width="188.25" height="60" as="geometry"/>
                </mxCell>
                <mxCell id="K2otVNH5BM3hFpUply0Z-32" value="" style="endArrow=classic;html=1;rounded=0;edgeStyle=elbowEdgeStyle;labelBackgroundColor=none;fontColor=#030202;fillColor=#60a917;strokeColor=#2D7600;" parent="1" source="K2otVNH5BM3hFpUply0Z-25" target="K2otVNH5BM3hFpUply0Z-31" edge="1">
                    <mxGeometry width="50" height="50" relative="1" as="geometry">
                        <mxPoint x="404.13" y="570" as="sourcePoint"/>
                        <mxPoint x="437.63" y="705" as="targetPoint"/>
                        <Array as="points">
                            <mxPoint x="402.63" y="660"/>
                        </Array>
                    </mxGeometry>
                </mxCell>
                <mxCell id="K2otVNH5BM3hFpUply0Z-35" value="&lt;div style=&quot;text-align: left&quot;&gt;&lt;font&gt;&lt;span style=&quot;font-size: 11.9px&quot;&gt;CompressedNodeWeakMapper&lt;/span&gt;&lt;/font&gt;&lt;/div&gt;" style="rounded=1;whiteSpace=wrap;html=1;labelBackgroundColor=none;fontColor=#ffffff;fillColor=#60a917;strokeColor=#2D7600;" parent="1" vertex="1">
                    <mxGeometry x="310.01" y="710" width="188.25" height="60" as="geometry"/>
                </mxCell>
                <mxCell id="K2otVNH5BM3hFpUply0Z-36" value="" style="endArrow=classic;html=1;rounded=0;edgeStyle=elbowEdgeStyle;labelBackgroundColor=none;fontColor=#030202;fillColor=#60a917;strokeColor=#2D7600;" parent="1" source="K2otVNH5BM3hFpUply0Z-31" target="K2otVNH5BM3hFpUply0Z-35" edge="1">
                    <mxGeometry width="50" height="50" relative="1" as="geometry">
                        <mxPoint x="404.13" y="670" as="sourcePoint"/>
                        <mxPoint x="437.63" y="815" as="targetPoint"/>
                        <Array as="points">
                            <mxPoint x="402.63" y="770"/>
                        </Array>
                    </mxGeometry>
                </mxCell>
                <mxCell id="K2otVNH5BM3hFpUply0Z-37" value="&lt;div style=&quot;text-align: left&quot;&gt;&lt;font&gt;&lt;span style=&quot;font-size: 11.9px&quot;&gt;CompressedObjectTreeModel&lt;/span&gt;&lt;/font&gt;&lt;/div&gt;" style="rounded=1;whiteSpace=wrap;html=1;labelBackgroundColor=none;fontColor=#ffffff;fillColor=#60a917;strokeColor=#2D7600;" parent="1" vertex="1">
                    <mxGeometry x="310" y="770" width="188.25" height="60" as="geometry"/>
                </mxCell>
                <mxCell id="K2otVNH5BM3hFpUply0Z-39" value="&lt;div style=&quot;text-align: left&quot;&gt;&lt;font&gt;&lt;span style=&quot;font-size: 11.9px&quot;&gt;new map()&lt;/span&gt;&lt;/font&gt;&lt;/div&gt;" style="rounded=1;whiteSpace=wrap;html=1;labelBackgroundColor=none;fontColor=#ffffff;fillColor=#60a917;strokeColor=#2D7600;" parent="1" vertex="1">
                    <mxGeometry x="357.08" y="890" width="94.12" height="60" as="geometry"/>
                </mxCell>
                <mxCell id="K2otVNH5BM3hFpUply0Z-40" value="" style="endArrow=classic;html=1;rounded=0;edgeStyle=elbowEdgeStyle;labelBackgroundColor=none;fontColor=#030202;fillColor=#60a917;strokeColor=#2D7600;" parent="1" source="K2otVNH5BM3hFpUply0Z-37" target="K2otVNH5BM3hFpUply0Z-39" edge="1">
                    <mxGeometry width="50" height="50" relative="1" as="geometry">
                        <mxPoint x="404.13" y="850" as="sourcePoint"/>
                        <mxPoint x="437.63" y="995" as="targetPoint"/>
                        <Array as="points">
                            <mxPoint x="402.63" y="950"/>
                        </Array>
                    </mxGeometry>
                </mxCell>
                <mxCell id="K2otVNH5BM3hFpUply0Z-41" value="&lt;div style=&quot;text-align: left&quot;&gt;&lt;font&gt;&lt;span style=&quot;font-size: 11.9px&quot;&gt;ObjectTreeModel&lt;/span&gt;&lt;/font&gt;&lt;/div&gt;" style="rounded=1;whiteSpace=wrap;html=1;labelBackgroundColor=none;fontColor=#ffffff;fillColor=#60a917;strokeColor=#2D7600;" parent="1" vertex="1">
                    <mxGeometry x="310.01" y="950" width="188.25" height="60" as="geometry"/>
                </mxCell>
                <mxCell id="K2otVNH5BM3hFpUply0Z-43" value="" style="endArrow=block;endSize=16;endFill=0;html=1;rounded=0;labelBackgroundColor=none;fontColor=#030202;fillColor=#60a917;strokeColor=#2D7600;" parent="1" source="K2otVNH5BM3hFpUply0Z-28" target="K2otVNH5BM3hFpUply0Z-13" edge="1">
                    <mxGeometry x="0.4815" width="160" relative="1" as="geometry">
                        <mxPoint x="1053.25" y="539.9999999999998" as="sourcePoint"/>
                        <mxPoint x="1093.25" y="539.9999999999998" as="targetPoint"/>
                        <mxPoint as="offset"/>
                    </mxGeometry>
                </mxCell>
                <mxCell id="K2otVNH5BM3hFpUply0Z-44" value="" style="endArrow=classic;html=1;rounded=0;edgeStyle=elbowEdgeStyle;labelBackgroundColor=none;fontColor=#030202;fillColor=#60a917;strokeColor=#2D7600;" parent="1" source="K2otVNH5BM3hFpUply0Z-12" target="K2otVNH5BM3hFpUply0Z-45" edge="1">
                    <mxGeometry width="50" height="50" relative="1" as="geometry">
                        <mxPoint x="736.5" y="570" as="sourcePoint"/>
                        <mxPoint x="960" y="620" as="targetPoint"/>
                        <Array as="points">
                            <mxPoint x="940" y="580"/>
                        </Array>
                    </mxGeometry>
                </mxCell>
                <mxCell id="K2otVNH5BM3hFpUply0Z-45" value="&lt;div style=&quot;text-align: left&quot;&gt;&lt;font&gt;&lt;span style=&quot;font-size: 11.9px&quot;&gt;...&lt;/span&gt;&lt;/font&gt;&lt;br&gt;&lt;/div&gt;" style="rounded=1;whiteSpace=wrap;html=1;labelBackgroundColor=none;fontColor=#ffffff;fillColor=#60a917;strokeColor=#2D7600;" parent="1" vertex="1">
                    <mxGeometry x="920" y="590" width="37.1" height="60" as="geometry"/>
                </mxCell>
            </root>
        </mxGraphModel>
    </diagram>
</mxfile>